<svg xmlns="http://www.w3.org/2000/svg" width="1920" height="600" viewBox="0 0 1920 600"><rect width="100%" height="100%" fill="#4a0572"/><path fill="#fff" d="M497.79 231.535h15.74v112.06h-18.37v-72.39q0-4.33.46-9.37l-33.86 63.62q-2.41 4.58-7.37 4.58h-2.94q-4.96 0-7.36-4.58l-34.26-63.86q.23 2.56.39 5.04.15 2.48.15 4.57v72.39H392v-112.06h15.74q1.39 0 2.4.07 1.01.08 1.82.39t1.47 1.01 1.28 1.86l33.56 62.23q1.32 2.48 2.44 5.12 1.13 2.63 2.21 5.42 1.09-2.87 2.25-5.54t2.48-5.16l33.09-62.07q.62-1.16 1.32-1.86t1.51-1.01 1.82-.39q1.01-.07 2.4-.07m87.04 32.54h19.14v79.52h-11.7q-3.8 0-4.81-3.49l-1.32-6.35q-4.88 4.96-10.77 8.02t-13.87 3.06q-6.51 0-11.51-2.21t-8.41-6.24-5.15-9.57q-1.75-5.54-1.75-12.2v-50.54h19.15v50.54q0 7.28 3.37 11.27t10.11 3.99q4.96 0 9.3-2.21t8.22-6.08zm-6.9-33.78h18.6l-19.14 20.22q-1.48 1.55-2.83 2.13-1.36.59-3.53.59h-11.47l11.01-18.84q1.16-2.01 2.71-3.06 1.55-1.04 4.65-1.04m97.8 42.39-4.34 6.89q-.77 1.25-1.62 1.75-.86.5-2.17.5-1.4 0-2.99-.77-1.59-.78-3.68-1.75-2.09-.96-4.77-1.74-2.67-.77-6.31-.77-5.66 0-8.88 2.4-3.21 2.4-3.21 6.27 0 2.56 1.66 4.31 1.67 1.74 4.42 3.06 2.75 1.31 6.24 2.36t7.09 2.29q3.61 1.24 7.09 2.83 3.49 1.58 6.24 4.03 2.75 2.44 4.42 5.85t1.67 8.21q0 5.74-2.06 10.58-2.05 4.84-6.08 8.37t-9.96 5.5q-5.93 1.98-13.68 1.98-4.11 0-8.02-.74-3.91-.73-7.52-2.05-3.6-1.32-6.66-3.1t-5.39-3.88l4.42-7.28q.85-1.32 2.01-2.01 1.17-.7 2.95-.7t3.37 1q1.59 1.01 3.68 2.17 2.09 1.17 4.92 2.17 2.83 1.01 7.17 1.01 3.41 0 5.85-.81t4.03-2.13 2.33-3.06q.73-1.75.73-3.61 0-2.79-1.66-4.57-1.67-1.78-4.42-3.1t-6.28-2.36q-3.52-1.05-7.21-2.29-3.68-1.24-7.2-2.91-3.53-1.66-6.28-4.22t-4.42-6.28q-1.66-3.72-1.66-8.99 0-4.88 1.93-9.3 1.94-4.42 5.7-7.71t9.38-5.27q5.62-1.97 12.98-1.97 8.21 0 14.96 2.71 6.74 2.71 11.23 7.13m15.89-8.61h19.22v79.52h-19.22zm21.86-23.17q0 2.48-1.01 4.65t-2.68 3.8q-1.66 1.63-3.91 2.6t-4.8.97q-2.48 0-4.69-.97t-3.84-2.6-2.6-3.8q-.96-2.17-.96-4.65 0-2.56.96-4.8.97-2.25 2.6-3.88t3.84-2.59q2.21-.97 4.69-.97 2.55 0 4.8.97 2.25.96 3.91 2.59 1.67 1.63 2.68 3.88 1.01 2.24 1.01 4.8m78.89 33.02-5.04 6.97q-.85 1.09-1.66 1.71-.82.62-2.37.62-1.47 0-2.86-.89-1.4-.9-3.34-2.02-1.93-1.12-4.61-2.01-2.67-.9-6.62-.9-5.04 0-8.84 1.83-3.8 1.82-6.32 5.23-2.51 3.41-3.75 8.25-1.24 4.85-1.24 10.97 0 6.35 1.35 11.31 1.36 4.96 3.92 8.33 2.55 3.38 6.2 5.12 3.64 1.74 8.21 1.74t7.4-1.12 4.77-2.48 3.37-2.48 3.22-1.12q2.32 0 3.48 1.78l5.51 6.97q-3.18 3.72-6.9 6.24t-7.71 4.03-8.22 2.13q-4.22.62-8.41.62-7.36 0-13.87-2.75t-11.39-8.02-7.71-12.9q-2.83-7.64-2.83-17.4 0-8.76 2.52-16.24t7.4-12.94 12.09-8.57q7.21-3.09 16.58-3.09 8.92 0 15.62 2.86 6.7 2.87 12.05 8.22m54.72 49.13v-13.41q-8.3.39-13.95 1.44-5.66 1.05-9.07 2.67-3.41 1.63-4.88 3.8-1.48 2.17-1.48 4.73 0 5.04 2.99 7.2 2.98 2.17 7.79 2.17 5.89 0 10.19-2.13t8.41-6.47m-40.46-41.77-3.41-6.12q13.72-12.56 33.02-12.56 6.97 0 12.47 2.29 5.51 2.28 9.3 6.35 3.8 4.07 5.78 9.73 1.97 5.66 1.97 12.4v50.22h-8.68q-2.71 0-4.18-.81-1.47-.82-2.33-3.3l-1.7-5.73q-3.02 2.71-5.89 4.76-2.87 2.06-5.97 3.45-3.1 1.4-6.63 2.13-3.52.74-7.78.74-5.04 0-9.3-1.36-4.27-1.35-7.37-4.06-3.1-2.72-4.8-6.75-1.71-4.03-1.71-9.37 0-3.03 1.01-6.01t3.29-5.7q2.29-2.71 5.93-5.11 3.65-2.4 8.95-4.19 5.31-1.78 12.37-2.9 7.05-1.13 16.12-1.36v-4.65q0-7.98-3.41-11.82t-9.85-3.84q-4.65 0-7.71 1.09t-5.38 2.44q-2.33 1.36-4.23 2.44-1.9 1.09-4.22 1.09-2.02 0-3.41-1.05-1.4-1.04-2.25-2.44m129.89 13.41h36.12q0-3.72-1.05-7.02-1.05-3.29-3.14-5.77t-5.31-3.91q-3.21-1.44-7.48-1.44-8.29 0-13.06 4.73-4.76 4.73-6.08 13.41m48.83 11.55h-49.22q.47 6.12 2.17 10.57 1.71 4.46 4.5 7.37 2.79 2.9 6.62 4.34 3.84 1.43 8.49 1.43t8.02-1.08q3.37-1.09 5.89-2.41t4.42-2.4 3.68-1.08q2.4 0 3.57 1.78l5.5 6.97q-3.18 3.72-7.13 6.24t-8.26 4.03q-4.3 1.51-8.75 2.13-4.46.62-8.64.62-8.3 0-15.43-2.75t-12.4-8.14q-5.27-5.38-8.29-13.33-3.02-7.94-3.02-18.4 0-8.14 2.63-15.31 2.64-7.17 7.56-12.48 4.92-5.3 12.01-8.41 7.09-3.09 16.01-3.09 7.51 0 13.87 2.4 6.35 2.4 10.93 7.01 4.57 4.61 7.16 11.32 2.6 6.7 2.6 15.3 0 4.34-.93 5.85-.93 1.52-3.56 1.52m80.36 20.15h44.8v17.2h-65.64v-112.06h20.84zm71.77-31.7h36.11q0-3.72-1.04-7.02-1.05-3.29-3.14-5.77t-5.31-3.91q-3.22-1.44-7.48-1.44-8.29 0-13.06 4.73-4.76 4.73-6.08 13.41m48.82 11.55h-49.21q.47 6.12 2.17 10.57 1.71 4.46 4.5 7.37 2.79 2.9 6.62 4.34 3.84 1.43 8.49 1.43t8.02-1.08q3.37-1.09 5.89-2.41t4.42-2.4 3.68-1.08q2.4 0 3.56 1.78l5.51 6.97q-3.18 3.72-7.13 6.24-3.96 2.52-8.26 4.03t-8.76 2.13q-4.45.62-8.64.62-8.29 0-15.42-2.75t-12.4-8.14q-5.27-5.38-8.29-13.33-3.02-7.94-3.02-18.4 0-8.14 2.63-15.31 2.64-7.17 7.56-12.48 4.92-5.3 12.01-8.41 7.09-3.09 16-3.09 7.52 0 13.88 2.4 6.35 2.4 10.92 7.01 4.58 4.61 7.17 11.32 2.6 6.7 2.6 15.3 0 4.34-.93 5.85-.93 1.52-3.57 1.52m47.9-4.35q3.56 0 6.2-.96 2.63-.97 4.38-2.68 1.74-1.7 2.63-4.11.89-2.4.89-5.26 0-5.89-3.52-9.34-3.53-3.45-10.58-3.45-7.06 0-10.58 3.45-3.53 3.45-3.53 9.34 0 2.79.89 5.19t2.64 4.14q1.74 1.75 4.42 2.72 2.67.96 6.16.96m21.62 45.26q0-2.32-1.4-3.79-1.39-1.48-3.79-2.29t-5.62-1.2-6.82-.58q-3.6-.2-7.44-.35t-7.48-.62q-3.18 1.78-5.15 4.19-1.98 2.4-1.98 5.58 0 2.09 1.05 3.91 1.04 1.82 3.33 3.14 2.28 1.32 5.93 2.05 3.64.74 8.91.74 5.35 0 9.22-.82 3.88-.81 6.4-2.24 2.51-1.44 3.68-3.41 1.16-1.98 1.16-4.31m-3.8-80.36h22.86v7.13q0 3.41-4.1 4.18l-7.13 1.32q1.62 4.11 1.62 8.99 0 5.89-2.36 10.66-2.36 4.76-6.55 8.1-4.18 3.33-9.88 5.15-5.69 1.82-12.28 1.82-2.33 0-4.5-.23t-4.26-.62q-3.72 2.25-3.72 5.03 0 2.41 2.21 3.53 2.21 1.13 5.85 1.59 3.64.47 8.29.58 4.65.12 9.54.5 4.88.39 9.53 1.36t8.29 3.06q3.64 2.1 5.85 5.7t2.21 9.26q0 5.27-2.6 10.23-2.59 4.96-7.51 8.84-4.93 3.87-12.09 6.23-7.17 2.37-16.32 2.37-8.99 0-15.65-1.75-6.67-1.74-11.08-4.65-4.42-2.9-6.59-6.7t-2.17-7.91q0-5.57 3.37-9.33t9.26-6.01q-3.18-1.63-5.04-4.34t-1.86-7.13q0-1.78.66-3.68t1.94-3.76 3.21-3.53q1.94-1.66 4.58-2.98-6.05-3.26-9.5-8.68-3.45-5.43-3.45-12.71 0-5.89 2.37-10.66 2.36-4.76 6.59-8.13 4.22-3.37 9.99-5.16 5.78-1.78 12.6-1.78 5.11 0 9.61 1.05 4.49 1.04 8.21 3.06m76.96 56.26v-13.41q-8.29.39-13.95 1.44t-9.07 2.67q-3.41 1.63-4.88 3.8t-1.47 4.73q0 5.04 2.98 7.2 2.98 2.17 7.79 2.17 5.89 0 10.19-2.13t8.41-6.47m-40.46-41.77-3.41-6.12q13.72-12.56 33.02-12.56 6.97 0 12.48 2.29 5.5 2.28 9.3 6.35 3.79 4.07 5.77 9.73t1.98 12.4v50.22h-8.68q-2.72 0-4.19-.81-1.47-.82-2.32-3.3l-1.71-5.73q-3.02 2.71-5.89 4.76-2.87 2.06-5.97 3.45-3.1 1.4-6.62 2.13-3.53.74-7.79.74-5.04 0-9.3-1.36-4.26-1.35-7.36-4.06-3.1-2.72-4.81-6.75-1.7-4.03-1.7-9.37 0-3.03 1-6.01 1.01-2.98 3.3-5.7 2.28-2.71 5.93-5.11 3.64-2.4 8.95-4.19 5.31-1.78 12.36-2.9 7.05-1.13 16.12-1.36v-4.65q0-7.98-3.41-11.82t-9.84-3.84q-4.65 0-7.71 1.09-3.07 1.09-5.39 2.44-2.33 1.36-4.22 2.44-1.9 1.09-4.23 1.09-2.01 0-3.41-1.05-1.39-1.04-2.25-2.44m127.03 38.75v-35.65q-3.26-3.95-7.09-5.58-3.84-1.63-8.26-1.63-4.34 0-7.83 1.63-3.48 1.63-5.96 4.92t-3.8 8.37-1.32 11.98q0 6.97 1.13 11.81 1.12 4.85 3.21 7.91 2.1 3.06 5.12 4.42 3.02 1.35 6.74 1.35 5.97 0 10.15-2.48 4.19-2.48 7.91-7.05m0-91.61h19.14v115.17h-11.7q-3.8 0-4.81-3.49l-1.63-7.67q-4.8 5.5-11.04 8.91t-14.53 3.41q-6.51 0-11.93-2.71-5.43-2.71-9.34-7.87-3.92-5.15-6.05-12.74-2.13-7.6-2.13-17.36 0-8.84 2.4-16.43 2.4-7.6 6.9-13.18 4.49-5.58 10.77-8.72t14.11-3.14q6.66 0 11.39 2.1 4.73 2.09 8.45 5.65zm73.23 34.42q8.84 0 16.09 2.86 7.24 2.87 12.4 8.14 5.15 5.27 7.94 12.87 2.79 7.59 2.79 16.97 0 9.45-2.79 17.05-2.79 7.59-7.94 12.94-5.16 5.35-12.4 8.21-7.25 2.87-16.09 2.87-8.91 0-16.19-2.87-7.29-2.86-12.44-8.21-5.16-5.35-7.98-12.94-2.83-7.6-2.83-17.05 0-9.38 2.83-16.97 2.82-7.6 7.98-12.87 5.15-5.27 12.44-8.14 7.28-2.86 16.19-2.86m0 67.19q9.93 0 14.69-6.67 4.77-6.66 4.77-19.53 0-12.86-4.77-19.61-4.76-6.74-14.69-6.74-10.07 0-14.91 6.78-4.85 6.78-4.85 19.57t4.85 19.49q4.84 6.71 14.91 6.71"/></svg>